<?xml version="1.0" standalone="no"?><!DOCTYPE svg PUBLIC "-//W3C//DTD SVG 1.1//EN" "http://www.w3.org/Graphics/SVG/1.1/DTD/svg11.dtd"><svg class="icon" width="256px" height="256.00px" viewBox="0 0 1024 1024" version="1.1" xmlns="http://www.w3.org/2000/svg"><path d="M935.424 375.296H88.576c-10.752-1.024-21.504 3.072-29.696 10.752-6.656 8.192-10.24 18.432-9.728 28.672-0.512 11.264 4.096 22.016 12.8 28.672 9.216 6.656 19.968 10.24 31.232 9.728h31.232v210.432c0 18.944 0 36.352 0.512 52.224 0.512 15.872 0.512 29.696 0.512 41.472v20.992c-1.024 26.624 5.12 53.248 17.92 76.288 13.824 22.528 32.256 41.984 54.784 55.808 6.656 4.096 13.824 7.68 20.992 11.264 6.144 2.56 12.288 4.608 18.432 6.144 6.144 2.048 12.288 3.072 18.432 3.072v17.408c0 5.12 0 10.24 0.512 14.848 0.512 4.608 0.512 9.216 0.512 12.8-0.512 9.728 4.096 18.944 12.288 24.064 8.192 6.144 17.92 9.216 28.16 9.216 9.728 0 19.456-2.56 27.648-7.68 8.704-4.096 14.336-13.312 13.824-23.04v-43.008h350.72v43.008c0 9.728 4.608 18.944 12.8 24.064 8.192 6.656 18.432 9.728 28.672 9.728 10.24-0.512 20.48-4.096 29.184-9.728 8.192-5.12 12.8-14.336 12.8-24.064v-46.08c9.216-1.536 18.944-3.584 27.648-6.144 9.728-3.584 18.944-7.168 27.648-12.288 11.264-6.144 22.016-13.312 31.232-22.016 19.968-18.944 32.768-36.864 38.4-52.736 5.12-15.872 8.192-32.768 8.192-49.664V453.632h33.28c9.728 0 18.432-3.584 25.088-11.264 6.656-7.68 10.24-17.408 9.728-27.648 0.512-26.112-12.8-39.424-38.912-39.424zM210.432 834.56c-13.824 1.024-26.624-7.168-31.744-20.48V483.84s3.072-26.624 29.696-26.624c15.872 0 29.184 11.264 31.744 26.624V814.08c-4.096 12.288-16.384 20.48-29.696 20.48z m355.328-9.728H481.792v-74.752h83.456v74.752z" fill="#362E2D" /><path d="M944.64 278.528c-5.12-7.168-10.752-13.312-17.408-18.944-9.728-8.192-19.968-15.36-30.208-22.016-13.312-7.168-23.552-12.8-31.232-16.384-6.144-3.072-12.288-5.632-18.432-7.68-4.096-2.048-8.192-2.56-12.8-2.048-4.608-18.944-11.264-37.376-19.456-55.296-8.704-16.896-18.432-32.768-30.208-48.128-12.8-16.896-27.648-31.232-45.056-43.52-17.408-11.264-35.84-20.992-55.296-28.672-18.944-7.168-38.912-12.8-58.88-16.384-19.456-3.584-39.424-6.144-58.88-7.168-19.456-1.024-37.376-1.536-54.272-1.536-29.184 0-57.856 2.048-86.528 5.632C399.36 20.48 373.76 26.112 348.16 33.28c-25.088 7.168-49.152 18.944-70.144 34.816-16.384 12.8-30.72 27.648-42.496 44.544-10.24 14.848-19.456 30.72-27.136 47.104-8.192 16.384-14.848 33.28-19.456 51.2-7.168 1.536-13.824 3.584-20.992 6.144-6.144 3.072-13.824 6.144-22.528 10.24-9.728 4.608-19.456 9.728-28.16 15.872-8.704 6.144-16.896 12.8-24.064 20.48-5.632 5.12-10.24 10.752-14.848 16.896-4.096 5.632-18.944 37.376-19.968 52.224H962.56c-2.048-18.944-8.192-37.376-17.92-54.272z m-270.848-91.648l-73.728-5.12c-27.648-1.536-57.344-2.56-88.064-2.56-29.184 0-57.856 1.024-84.992 2.56l-73.728 5.12c-25.6 2.048-49.152 4.096-71.68 6.144 3.584-10.752 7.68-20.992 12.8-30.72 5.632-10.24 11.264-19.968 17.92-29.696 8.192-11.776 18.432-22.528 29.696-31.744 13.312-10.24 28.672-16.896 44.544-20.992 18.432-5.12 37.376-8.704 56.32-11.776 21.504-3.072 44.544-5.12 69.632-6.144 28.16 0.512 56.32 3.072 84.48 7.168 28.16 4.096 55.296 13.824 79.872 28.672 12.288 7.168 23.04 16.896 31.744 28.16 7.68 9.728 14.336 20.48 19.968 31.744 6.144 11.264 10.752 23.552 13.824 36.352-20.992-2.56-43.52-4.608-68.608-7.168z" fill="#D5CEC9" /></svg>