<?xml version="1.0" standalone="no"?><!DOCTYPE svg PUBLIC "-//W3C//DTD SVG 1.1//EN" "http://www.w3.org/Graphics/SVG/1.1/DTD/svg11.dtd"><svg class="icon" width="256px" height="256.00px" viewBox="0 0 1024 1024" version="1.1" xmlns="http://www.w3.org/2000/svg"><path d="M789.466464 259.05102c-2.55494 0-5.10988 0-7.66482 0.510988-29.126314-124.681063-139.499714-212.570993-267.246704-213.081981-1.532964-30.14829-6.642844-56.208676-22.994459-42.922989-11.752723 9.708771-12.263711 27.082362-7.664819 44.455953-117.016243 12.774699-213.08198 97.598701-239.653355 212.060005-2.55494 0-5.10988-0.510988-7.153831-0.510988-35.258169 0-63.873495 28.615326-63.873495 63.873495s28.615326 63.873495 63.873495 63.873495c2.55494 0 5.10988 0 7.153831-0.510988 34.747181 148.697497 183.444679 240.67533 332.142176 205.928149 102.197593-24.016434 181.911715-103.730556 205.928149-205.928149 2.55494 0 5.10988 0.510988 7.153832 0.510988 35.258169-1.021976 62.851519-30.659278 61.829543-65.917447-1.021976-34.236194-28.104338-61.318556-61.829543-62.340531z m-404.191479 31.681253c0-17.373591 14.307663-31.681254 31.681254-31.681253s31.681254 14.307663 31.681254 31.681253c0 17.373591-14.307663 31.681254-31.681254 31.681254-17.373591 0-31.681254-14.307663-31.681254-31.681254z m117.016244 180.889739c-53.142748 0-95.554749-38.324097-95.554749-85.33499h191.620486c-0.510988 47.010893-43.433977 85.33499-96.065737 85.33499z m85.334989-149.208485c-17.884579 0-32.192242-14.307663-32.192241-31.681254 0-17.884579 14.307663-32.192242 31.681254-32.192241 17.884579 0 32.192242 14.307663 32.192241 31.681253 0 17.884579-14.307663 32.192242-31.681254 32.192242z" fill="#362E2D" /><path d="M551.346073 690.32486c-4.087904 3.576916-9.197783 6.642844-14.307663 8.686796l238.120391 205.417161c3.576916 3.065928 7.153831 6.642844 9.708771 11.241735 30.14829-42.922989 45.988917-93.510797 45.988917-146.142557v-105.774509c0-50.07682-14.818651-99.131665-42.412001-141.032677l-237.098415 167.604051z" fill="#D5CEC9" /><path d="M300.961971 567.176761L237.599464 522.209821c-27.59335 41.901013-42.412001 90.444869-42.412001 140.521689v105.774509c0 141.032678 114.461304 255.493981 255.493981 255.493981h125.192051c65.917447 0 129.279955-25.549398 176.801835-71.027327-4.598892-2.043952-8.686795-4.598892-12.263711-7.664819l-439.449648-378.131093z" fill="#362E2D" /></svg>