<?xml version="1.0" standalone="no"?><!DOCTYPE svg PUBLIC "-//W3C//DTD SVG 1.1//EN" "http://www.w3.org/Graphics/SVG/1.1/DTD/svg11.dtd"><svg class="icon" width="256px" height="256.00px" viewBox="0 0 1024 1024" version="1.1" xmlns="http://www.w3.org/2000/svg"><path d="M957.873705 619.591014c-30.714607-44.536179-90.608089-46.07191-97.262921-46.07191h-61.429213v-19.452584c0-55.798202-51.191011-55.798202-51.191011-55.798202H106.567194c-56.822022 0-56.822022 55.798202-56.822022 55.798202v86.512809c0 140.77528 71.155505 251.859773 178.144718 311.753256v33.786067c0 20.988314 16.893034 37.881348 37.881348 37.881348h317.384267c20.988314 0 37.881348-16.893034 37.881348-37.881348V952.332585c38.393258-21.500225 72.691235-50.167191 100.846292-84.465168 90.608089-3.583371 199.644942-26.107416 240.597751-134.120449 17.404944-46.07191 15.869213-84.465168-4.607191-114.155954z m-61.429213 88.560449c-17.916854 47.60764-57.845842 74.226966-129.001348 84.465168 20.988314-47.09573 31.738427-97.774831 31.738427-148.965842h61.429213c9.726292 0 31.738427 4.095281 39.928988 15.869214 5.631011 9.214382 4.095281 26.619326-4.09528 48.63146z" fill="#362E2D" /><path d="M336.926743 302.206747c0 86.512808 102.893932 138.727639 102.893932 138.727639-15.357303-61.429213 9.214382-110.572583 67.060224-145.894381 79.346067-48.63146 126.953707-74.226966 126.953707-151.525392 0-72.179325-63.988764-160.227864-266.193257-140.77528 0 0 103.917752 29.690786 90.60809 125.417977-7.166742 47.60764-121.834606 92.14382-121.322696 174.049437z" fill="#D5CEC9" /></svg>