<?xml version="1.0" standalone="no"?><!DOCTYPE svg PUBLIC "-//W3C//DTD SVG 1.1//EN" "http://www.w3.org/Graphics/SVG/1.1/DTD/svg11.dtd"><svg class="icon" width="256px" height="256.00px" viewBox="0 0 1024 1024" version="1.1" xmlns="http://www.w3.org/2000/svg"><path d="M901.632 224.256H752.64l-55.296-113.152c-5.12-9.728-14.336-15.872-25.6-16.384H362.496c-6.144 0-11.776 2.048-16.384 5.12-5.12 3.072-9.216 7.68-11.776 12.8L278.528 224.768H230.4v-32.256c0-17.92-18.944-32.768-53.248-32.768-29.184 0-50.688 14.848-50.688 32.768v32.256h-4.096C54.784 224.256 0 279.04 0 346.624v460.288c0 67.584 54.784 122.368 122.368 122.368h779.264c66.56 1.024 121.344-52.224 122.368-118.784V346.624c0-67.584-54.784-122.368-122.368-122.368z m-389.12 615.936c-145.92 0-264.192-118.272-264.192-264.192s118.272-264.192 264.192-264.192 264.192 118.272 264.192 264.192c0 145.408-118.272 263.68-264.192 264.192z m356.352-393.728c-37.376 0-67.584-30.208-67.584-68.096s30.208-67.584 68.096-67.584c37.376 0 67.584 30.208 67.584 67.584-0.512 37.888-30.72 68.096-68.096 68.096z" fill="#362E2D" /><path d="M513.536 412.16c-92.672 0-167.936 75.264-168.448 167.936 0 92.672 75.264 167.936 167.936 168.448 92.672 0 167.936-75.264 168.448-167.936 0-93.184-75.264-168.448-167.936-168.448z" fill="#D5CEC9" /></svg>