<?xml version="1.0" standalone="no"?><!DOCTYPE svg PUBLIC "-//W3C//DTD SVG 1.1//EN" "http://www.w3.org/Graphics/SVG/1.1/DTD/svg11.dtd"><svg class="icon" width="256px" height="256.00px" viewBox="0 0 1024 1024" version="1.1" xmlns="http://www.w3.org/2000/svg"><path d="M634.88 313.856s224.768-175.616 308.224-101.376c73.216 66.048 73.728 347.136 0 394.752-67.584 43.52-139.264-5.12-306.176-103.936 1.024 0 74.24-84.48-2.048-189.44zM386.048 503.296c-166.912 98.816-237.568 147.456-305.152 103.936-73.728-47.616-73.216-328.704 0-394.752C164.352 138.24 389.12 313.856 389.12 313.856c-76.288 104.96-3.072 189.44-3.072 189.44zM417.28 532.48s-142.848 78.848-167.424 108.544C225.28 670.72 328.704 839.168 370.176 829.44c64-14.336 97.28-131.072 121.344-266.752 0-0.512-45.056-2.048-74.24-30.208zM541.696 562.176c24.064 135.68 57.856 252.928 121.344 266.752 41.472 9.728 144.384-159.232 119.808-188.416-24.576-29.184-167.424-108.544-167.424-108.544-29.184 28.672-73.728 30.208-73.728 30.208z" fill="#362E2D" /><path d="M514.56 408.576m-117.248 0a117.248 117.248 0 1 0 234.496 0 117.248 117.248 0 1 0-234.496 0Z" fill="#D5CEC9" /></svg>